<svg xmlns="http://www.w3.org/2000/svg" width="78.952" height="118.693"><g data-name="Сгруппировать 10638" fill="#fff"><text transform="translate(.131 99.693)" font-size="13" font-family="Montserrat-Bold, Montserrat" font-weight="700" letter-spacing=".1em"><tspan x="0" y="0">LAZY</tspan></text><path data-name="Контур 5311" d="M78.952 57.15v.007a6.119 6.119 0 01-6.121 6.115.338.338 0 00-.186.041 26.4 26.4 0 00-5.155-.531 22.713 22.713 0 00-16.349 6.763 46.009 46.009 0 01-33.43 14.224 23.123 23.123 0 0021.1-23.037 22.594 22.594 0 00-4.134-13.216 17.786 17.786 0 01-14.866 27.7 17.549 17.549 0 01-13.016-5.645 22.881 22.881 0 01-6.791-16.37A23.2 23.2 0 019.131 34.81a22.772 22.772 0 013.7-2.305 23.168 23.168 0 0131.077 10.393c.538 1.111.994 2.084 1.47 2.94 3.119 5.556 10.732 6.059 15.314 2.057a9.941 9.941 0 003.4-7.626 10.222 10.222 0 00-10.228-10.221c-.386 0-.78.021-.587.034-16.77-.034-31.449-12.885-33.748-30.083a83.737 83.737 0 0159.1 55.2 5.855 5.855 0 01.323 1.951z" fill-rule="evenodd"/><text transform="translate(8.131 115.693)" font-size="13" font-family="Montserrat-Bold, Montserrat" font-weight="700" letter-spacing=".1em"><tspan x="0" y="0">RABBIT</tspan></text></g></svg>